<?xml version="1.0" encoding="UTF-8"?>
<svg id="Camada_1" xmlns="http://www.w3.org/2000/svg" version="1.1" viewBox="0 0 1444.28 409.19">
  <!-- Generator: Adobe Illustrator 30.4.0, SVG Export Plug-In . SVG Version: 2.1.4 Build 226)  -->
  <defs>
    <style>
      .st0 {
        fill: #00ffc3;
      }

      .st1 {
        fill: #e0ba62;
      }
    </style>
  </defs>
  <g>
    <path class="st0" d="M394.28,257.25h92.47c17.2,0,25.18-3.99,25.18-15.2,0-12.21-10.97-17.2-27.92-20.19l-32.15-5.73c-35.15-6.23-55.58-19.69-55.58-51.6s22.43-48.11,63.56-48.11h79.96l.05,33.65h-78.52c-17.2,0-25.17,3.74-25.17,13.71,0,11.47,10.97,15.95,27.92,18.94l33.15,5.98c35.89,6.48,54.59,19.69,54.59,52.59s-22.43,49.6-63.56,49.6h-93.94l-.03-33.65Z"/>
    <path class="st0" d="M568.01,222.36c0-45.37,25.18-68.55,76.27-68.55h42.68l-.05,31.91h-43.12c-26.17,0-37.14,11.96-37.14,36.64s10.97,36.64,37.14,36.64h44.12l-.02,31.91h-43.6c-51.1,0-76.27-23.18-76.27-68.55Z"/>
    <path class="st0" d="M702.61,222.36c0-47.11,25.18-71.04,76.27-71.04s76.02,23.93,76.02,71.04-25.17,71.04-76.02,71.04-76.27-23.93-76.27-71.04ZM816.27,222.36c0-25.92-11.22-37.89-37.39-37.89s-37.64,11.96-37.64,37.89,11.47,37.89,37.64,37.89,37.39-11.96,37.39-37.89Z"/>
    <path class="st0" d="M1014.93,153.81v137.09h-36.3l-.09-17.7c-12.71,14.21-28.42,20.19-50.35,20.19-31.91,0-49.6-18.69-49.6-53.59v-85.99h37.89v80.26c0,16.95,4.98,25.67,23.93,25.67,17.7,0,29.16-9.72,36.64-21.44v-84.5h37.89Z"/>
    <path class="st0" d="M1146.53,261.49l.09,31.91h-29.5c-43.62,0-61.32-16.95-61.32-56.83v-50.6h-22.68l.1-32.15h24.33l.06-37.39h36.08v37.39h46.61v32.15h-46.61v52.84c0,16.95,9.72,22.68,26.92,22.68h25.92Z"/>
    <path class="st0" d="M1217.82,153.81h46.61v32.15h-46.61v104.94h-37.89v-104.94h-22.68l-.17-32.15h22.85v-1c0-39.38,17.7-53.84,60.57-53.84h30.16v31.41h-28.92c-16.45,0-23.93,4.74-23.93,20.44v2.99Z"/>
    <path class="st0" d="M1418.21,153.81v123.13c0,40.38-25.18,61.32-76.27,61.32h-49.33l-.27-31.66h49.6c26.67,0,38.39-9.72,38.39-28.91v-11.47c-12.46,11.72-27.67,15.7-48.11,15.7-32.65,0-50.85-18.94-50.85-53.84v-74.28h37.89v68.8c0,16.95,4.98,25.42,23.43,25.42s29.91-8.23,37.64-19.44v-74.78h37.89Z"/>
  </g>
  <g>
    <g>
      <path class="st0" d="M121.09,127.13v7.68s-8.27-2.95-8.27-2.95l7.2,7.2c-4.58-.67-8.72,1.1-12.72,2.86-5.17-3.12-7.53-10.12-6.34-16.05l6.62-4.49-.28,2.81c6.81-11.7,15.11-18.94,29.36-17.06,5.54-.89,10.78-1.58,16.95-1.09-4.68,5.31-6.03,10.97-4.33,17.58,1.39,5.41,5.63,11.18,10.79,13.6,11.66-1.26,20.67-8.57,23.98-19.59-2.89,3-4.87,6.91-8.02,9.54-2.34,1.95-7.09.44-8.91-1.41l6.84.37c1.43.08,2.59-2.62,3.37-3.53l.91-1.05c.21-.25-.98-.76-.9-.69,1.2-.54,2.24-1,2.7-1.53l2.74-3.18c2.82-3.27,4.56-6.76,4.21-11.28l-3.13-.77,5.03-2.58,1.14-8.58c1.22-1.1,2.35-2.21,3.47-3.75l-4.98,1.54,1.01-1.73-5.93,1.57-8.1-9.2,1.52,5.69-14.12-9.33,2.95,5.73-2.8-.37c-2.58,2.59-2.33,6.12-2.05,9.35-5.23,2.93-1.89,9.08.62,15.29-2.38,2.5-2.5,5.45-1.88,9.02-3.03-2.65-3.14-6.79-3.53-10.34-4.31.63-6.47-9.15-4.14-12.72.3-.46,1.94-.22,2.22.22l1.36,2.14c.16-1.21-.46-2.7-1.2-3.87l-2.02.31-.57-7.67c-.4-5.35,1.83-10.23,5.81-13.47l-2.92-.4c4.09-2.93,8.37-4.32,13.61-4.27l-3.93-1.7c6.6-2.03,13.52.5,19.08,4.79l-2.03-4.21c5.19,2.83,8.69,6.78,10.78,12.01l.2-5.25c2.7,3.64,3.53,7.88,2.89,12.42l1.65-1.69c.66,3.24-1.58,5.04-2.48,7.5l-3.26,8.87-1.95,5.81c-.56,1.66-1.11,4.19-1.52,6.1l9.63,3.91c-2.26,1.15-3.62,1.66-5.37,3.01,10.04-4.28,18.06-.7,25.02,7.81l-3.51.26c4.17,1.56,8.32,2.75,11.76,5.97-6.98-.42-12.68,2.26-16.3,7.73-3.98-.21-7.23.28-11.42,1.48,1.95-3.6,4.26-6.27,6.9-9.26-3.59,1.44-6.04,3.27-9.37,5.77l1.86-9.49-6.03,10.57c-2.17,3.8-4.17,7.54-6.93,10.92-6.95,8.51-16.49,13.98-27.41,15.22,6.19,2.16,12.25,1.7,19.29,1.02-9.19,9.85-22.48,12.41-34.76,7.38l15.19,10.23-8.27-1.71c-6.31-1.3-12.76-2.21-19.12-.33,3.68.22,7.12.31,10.83,2.07-5.65.84-10.59,1.55-14.74,5.3l8.26-2.4-5.78,4.59c7.7-4.26,16.02-6.75,24.62-3.34-17.73,1.81-29.63,23.55-22.16,39.19,1.46,3.06,3.96,4.69,6.9,6.71-10.44-1.49-17.84-9.78-20.18-19.63-1.88-7.95-.32-15.32,4.78-22.24l-5.62,4.33c.97-4.31,2.45-7.4,4.02-11,1.23-2.82,2.74-5.14,5.04-7.39-.08-1.83-1.03-4.69-.54-6.37l2.09-7.16c2.59,2.86,4.75,5.28,8.16,7.45-3.62-5.75-6.18-11.73-7.09-19.02,4.27,4.69,9.07,8.2,14.93,10.22-11.94-9.22-16.58-22.25-21.38-36.06ZM154.83,102.73l.48-4.12c.18-1.51-1.19-3.12-2.55-3.01l.92,2.42c-.16,1.91.11,3.32,1.15,4.71Z"/>
      <path class="st1" d="M81.65,331.97l-1.4,9.64c-18.1-.35-40.56-2.43-55.23-12.83-8.5-6.03-11.94-16.01-8.83-26,4.19-13.44,16.12-24.79,27.31-33.45,9.82-7.59,19.88-14.17,30.77-20.22,10.33-5.73,20.38-11.24,31.7-15.56-11.82,8.08-23.47,14.87-34.56,23.43-12.22,9.43-25.54,20.13-33.66,33.16-6.91,11.09-5.74,23.57,5.21,31.34,10.63,7.54,24.97,9.49,38.68,10.49Z"/>
      <path class="st1" d="M283.67,227.7l-5.83-6.66c18.04-10.99,34.82-22.53,50.94-35.58,12.9-11.15,36.99-31.62,26.58-48.15-2.15-3.41-5.3-5.59-8.51-8.16,6.35.56,12.03,2.48,17,5.75,6.89,4.54,9.84,12.33,7.8,20.3-2.98,11.6-12.68,21.51-21.76,29.37l-21.52,16.29c-13.75,9.25-29.69,18.54-44.71,26.85Z"/>
      <path class="st0" d="M103.8,344.87c-4.07,5.81-6.19,11.68-8.26,18.16-1.35,4.21-4.38,7.83-7.51,10.81-1.45,1.38-3.56,1.87-5.5,1.32-5.37-1.52-5.27-14.2-1.24-20.25,2.83-4.25,5.77-8.31,6.05-13.63.19-3.65.78-7.48,3-10.48,1.94-2.62,5.37-3.14,8.08-3.03-1.28,1.54-2.09,2.79-2.49,4.4,6.75-6.71,12.13-14.21,16.14-22.95,1.65-9.11,7.04-16.63,15.98-20.97-1.14,5.98-.02,12.4,5.22,16.21,3.18,2.31,6.37,2.43,10.39,1.03l-4.18,6.17c-4.26.83-7.97-.04-11.98-1.85,2.56,3.22,6.22,3.04,10.73,3-3.14,3.66-6.62,6.42-10.39,9.09l-13.13,9.28c-7.91,5.59-9.54,12.11-12.95,12.03-1.63-.04-3.18-.98-4.71-2.07.95,2.55,3.4,4.23,6.77,3.73Z"/>
      <path class="st0" d="M180.29,239.33l-1.63-6.13-1,9.79-2.12,14.26,1.84-1.35v6.69c-.01,3.15,3.19,4.67,6.21,4.11,2.57-.48,4.18-2.69,5.63-4.87-.29,3.89-4.02,6.53-7.41,6.93-3.99.47-7.57-2-8.98-5.9-1.7-4.71-2.98-9.69-3.34-14.75-.11-1.5-.22-2.74-1.14-3.11l-.77,2.36c-1.31-2.24-1.45-3.27-1.53-5.47l-.68,1.95c-2.18-1.86-4.1-3.52-6.46-4.65-5.72-2.74-9.53-7.75-10.63-14.08-1.22-7.05,1.89-14.03,8.22-17.44,5.77-3.11,12.76-1.91,17.14,3.01,2.51,2.83,3.94,6.53,4.22,10.39l-3.31,5.99c-2.02.81-3.41,1.51-4.28,2.92l3.93-1.61c-2.05,4.63-2.77,7.92-3.06,12.53-.07,1.06-.07,2.04.48,2.65.4-4.25,1.31-7.74,3.1-11.44,3.57-7.38,7.77-16.59,15.55-19.75,3.95-1.61,8.33.01,9.79,4.13,2.73,7.67,1.44,16.89-4.65,22.56,1.13-2.89,2.46-5.41,2.85-8.33.7-5.32.49-12.34-3.35-13.17-6.86-1.48-14.44,11.98-14.6,21.79Z"/>
      <path class="st0" d="M201.38,163.15l3.46-7.26-4.63,6.94c-.67.71-2.99-.29-3.53-1.11-1.88-2.87,2.71-6.03,3.48-10.06l-5.2,7.55c-1.38-.52-2.72-1.76-2.84-2.73-.14-1.08.31-3.16.96-3.9l5.01-5.71c1.81-2.06,3.46-1.06,5.47-.49l6.02,1.69c2.12.6,3.63.62,5.81.11,1.56-.36,4.02-.47,5.23-1.23,2.66-1.67,4.77-2.45,7.9-2.38-3.49-1.96-6.53-.59-9.83,1.24-2.02-.26-4.43-1.37-6.45-2.72,1.75-4.19,7.14-8.22,11.95-6.44,3.35,1.24,6.32,4.04,9.37,5.86,4.51,2.7,7.22,7.24,8.21,12.2.11,2.57-1.13,4.27-3.65,4.5-3.23,2.63-7.3,4.07-11.39,3.06l-7.4-1.83,2.8-2.92c-1.01.47-1.98.52-3.22.05-.04,2-1.2,4.94-3.75,5.34-4.46.69-2.07,2.98-5.39,4.18-1,.36-3.56-.9-3.13-1.85l3.28-6.11-4.65,6.15c-.84,1.11-4.72-.44-3.9-2.15Z"/>
      <path class="st0" d="M74.83,184.15c-.45,1.32-1.53,2.47-2.83,3.33l1.24,2.74,1.18-2.01c.57.81,1.35,2.51,1.09,3.27-.59,1.75-3.8,2.69-5.19,1.14l-4.42-4.92c-.74-1.1-1.28-4.11-.82-5.51,1.54-4.65,3.03-9.48,5.16-13.81l4.49-7.21,8.59-16.4c1.94-3.7,4.58-7.04,7.86-9.43l6.41-4.67c-.58,3.94.95,7.86,2.8,11.15.23.7-1.13,1.83-1.84,1.96-.95.17-2.03-.65-2.41-1.54-.39,2.48-1.21,4.93-2.18,7.46,1.74-1.26,2.74-2.25,4.86-2.48-.84,4.79-4.03,8.02-7.62,11.09-5.79,3.8-10.36,8.82-13.51,14.93-.32.07-1.37.95-1.06,1.04l1.52.48c1.36,1.71,2.75,4.97,2.52,7.46l-.63,6.83c-.08.87-1.3,2.16-2.22,2.08-3.2-.28-.2-4.36-3-6.95Z"/>
      <path class="st0" d="M138.18,296.32c-1.76-1.03-1.95-3.15-2.59-5.22l-1.95,8.35c-5.76-8.37-2.06-12.51-1.43-15.42l3.95-18.1c7.79-5.58,20.26-.41,25.57,7.79-2.52,5.63-6.68,10.21-11.86,13.58-.65,2.51-1.46,5.04-3.04,7.13-1.92,2.54-5.62,3.66-8.65,1.89Z"/>
      <path class="st1" d="M117.65,339.54c4.23-3.33,7.92-6.15,12.01-9.44,35.29-4.43,68.97-13.5,102.99-24.54-3.21,2.41-6.6,3.63-10.29,5.47-33.18,14.17-67.69,23.88-104.71,28.51Z"/>
      <path class="st0" d="M156.99,203.9c-3.87,2.18-6.72,4.91-9.16,8.75l.68-5.69c-2.59,3.38-3.41,6.92-3.72,11.31l-8.72,1.59c-2.46-4.9-1.98-9.95-.27-14.87,2.28-6.57,6.99-11.57,13.7-13.62,3.64-1.11,6.85-.21,10.38.58s6.43,1.48,8.34,4.82c1.42,2.48,2.32,5.44,2.35,8.71-3.42-2.04-6.21-3.22-9.97-2.56-1.78.32-3.26-.36-5.2-1.45-.15.36.22.96,1.6,2.42Z"/>
      <path class="st0" d="M149.06,258.43c-5.98-.84-10.84-.7-16.2,2.49l2.19-7.72,2.92-12.65,6.84,13.74,4.25,4.14Z"/>
      <path class="st1" d="M204.74,278.7c-12.63,5.49-24.82,11.14-37.97,15.83l35.66-20.47,2.3,4.63Z"/>
      <path class="st0" d="M173.97,195.15c-1.41-6.53.19-12.58,1.72-19.25-1.44,1.23-2.82,2.37-4.92,3.44l12.23-18.03c-2.5,7.47-4.88,14.26-6.47,21.75l-2.56,12.1Z"/>
      <path class="st0" d="M157.27,128.61c-5.23-4.96-6.55-12.8-2.86-18.61.53,6.61,1.47,12.15,2.86,18.61Z"/>
      <path class="st0" d="M148.91,296c-.34,2.41-3.57,6.45-6.7,6.73l6.7-6.73Z"/>
      <path class="st0" d="M190.38,255.7l-.3-5.06c-.08-1.42,1.03-4.01,1.72-5.53l-.81,5.23-.61,5.36Z"/>
    </g>
    <path class="st1" d="M228.93,216.05c-4.99,2.02-9.47,5-13.32,8.84-3.84,3.84-6.82,8.32-8.84,13.32-1.96,4.82-2.95,9.92-2.95,15.15s.99,10.32,2.95,15.15c2.03,4.99,5,9.48,8.84,13.32,3.84,3.84,8.32,6.82,13.32,8.84,4.82,1.96,9.92,2.95,15.15,2.95s10.32-.99,15.15-2.95c4.99-2.02,9.48-5,13.32-8.84,3.84-3.84,6.82-8.32,8.84-13.32,1.96-4.82,2.95-9.92,2.95-15.15s-.99-10.33-2.95-15.15c-2.02-4.99-5-9.48-8.84-13.32s-8.32-6.82-13.32-8.84c-4.82-1.95-9.92-2.95-15.15-2.95s-10.32.99-15.15,2.95ZM213.88,270.31c-1.94-1.22-3.73-2.62-5.31-4.27-2.42-6.8-2.83-14.16-1.22-21.15.75-1.49,1.61-2.91,2.58-4.28.3-.42.58-.86.9-1.27l9.08,5.38v.23c-.02,4.89.47,9.74,1.46,14.52,0,.02,0,.03.01.05l-7.04,11.05c-.15-.08-.31-.16-.45-.26ZM240.89,288.98c1.57.8,3.18,1.48,4.84,2.02-7.04.31-14.14-1.34-20.42-4.95l15.23,2.71c.12.07.24.15.36.21ZM240.84,286.23l-17.97-3.2c-2.1-2.55-3.99-5.25-5.62-8.14-.41-.73-.88-1.45-1.23-2.21l7.04-11.04c.16.04.33.08.53.13,4.4,1.18,8.88,2.02,13.4,2.67.26.04.48.07.67.09l8.44,14.59c-1.46,2.06-2.94,4.1-4.46,6.13-.25.34-.52.66-.8.98ZM270.73,280.02c-1.43,1.43-2.95,2.72-4.54,3.87-.26-2.11-.72-4.17-1.36-6.19l9-16.79c2.48-1.13,4.87-2.41,7.09-4,.29-.21.53-.44.72-.69-.65,8.68-4.29,17.17-10.91,23.79ZM270.33,258.24c.33.64.67,1.28,1,1.94l-8.69,16.22c-.05.01-.1.02-.15.03-4.7.88-9.44,1.34-14.22,1.37l-8.68-15c1.35-2.51,2.69-5.02,4.02-7.54.9-1.71,1.79-3.43,2.67-5.15l17.96-1.84c2.2,3.23,4.28,6.52,6.09,9.99ZM266.69,239c-.85,2.25-1.76,4.48-2.67,6.71l-17.49,1.8c-.21-.28-.43-.55-.65-.81-2.07-2.34-4.14-4.66-6.22-7,.02-.02.04-.04.06-.06-.84-.84-1.68-1.67-2.52-2.51l4.87-14.66c.34-.09.67-.16,1.02-.2,2.65-.27,5.3-.57,7.95-.73,1.63-.09,3.26-.14,4.91-.03l12.05,13.58c-.41,1.31-.82,2.62-1.3,3.91ZM270.73,226.7c3.32,3.33,5.9,7.12,7.72,11.18-2.25-1.55-4.66-2.82-7.19-3.86-.39-.16-.8-.31-1.21-.45l-11.86-13.37c.08-.58.13-1.16.14-1.74,4.51,1.84,8.74,4.59,12.4,8.24ZM232,217.76s.07.06.1.07c2.71.94,5.18,2.32,7.5,3.95l-4.55,13.7s-.05.01-.07.02c-.93.38-1.88.73-2.8,1.15-3.78,1.72-7.46,3.62-10.93,5.9l-8.98-5.31c.01-.28.06-.57.16-.82.6-1.61,1.2-3.22,1.88-4.8.53-1.21,1.12-2.38,1.78-3.53.43-.47.87-.94,1.33-1.39,4.26-4.26,9.3-7.29,14.67-9.08-.03.04-.06.09-.08.14Z"/>
    <path class="st0" d="M68.06,270.29c-.44.45,5.83,10.24,6.45,11.28,2.24,3.8,4.55,7.55,6.94,11.26,2.39,3.7,4.86,7.35,7.43,10.92,1.29,1.79,2.6,3.56,3.93,5.31,1.2,1.57,2.5,3.9,4.09,5.05,2.01-1.76,3.49-4.97,4.7-7.33.97-1.89,1.81-3.85,2.52-5.86.23-.65.9-1.88.76-2.53-.15-.68-1.4-1.73-1.85-2.29-2.34-2.91-4.65-5.85-6.88-8.83-4.79-6.39-9.22-13.03-13.25-19.93-1.14-1.96-2.26-3.94-3.34-5.94-5.51,3.21-9.03,6.37-11.5,8.89Z"/>
    <g>
      <path class="st0" d="M89.78,68.07c37.31-11.68,67.75-24.09,90.57-36.92,22.85,12.85,53.3,25.27,90.62,36.96,20.81,6.52,38.04,10.99,46.65,13.13,2.18,40.94-2.68,79.25-10.25,109.88,10.13-6.41,16.74-12.78,20.14-16.47,5.58-30.75,8.14-66.16,5.85-100.39l-.4-5.98-5.84-1.34c-.89-.2-89.61-20.81-142.68-52.03l-4.09-2.41-4.09,2.41c-53.02,31.19-141.74,51.79-142.63,52l-5.84,1.34-.4,5.98c-3.48,51.95,2.15,100.33,16.74,143.81,4.13,12.32,7.91,20.71,13.46,32.22,3.69-3.12,7.84-5.37,12.15-7.4-18.95-40.16-30.38-90.92-26.61-161.65,8.61-2.13,25.84-6.61,46.64-13.12Z"/>
      <path class="st0" d="M295.7,230.46c-1.99,4.93-4.77,8.84-6.9,13.42.75,3.29,1.15,6.72,1.15,10.24,0,21.46-14.76,39.47-34.69,44.44-.86,1.09-1.71,2.16-2.56,3.2-19.06,23.46-38.63,39.54-51.69,48.9-9.23,6.62-16.6,10.9-20.66,13.1-4.05-2.2-11.42-6.49-20.65-13.11-2.62-1.88-5.5-4.03-8.59-6.45-3.53.98-11.12,2.93-20.21,4.28,25.01,21.64,44.84,31.11,46.02,31.67l3.42,1.61,3.42-1.61c1.7-.8,42.09-20.06,80.91-67.56,21.79-26.66,40.95-60.61,52.63-93.79-8.45,4.35-18.06,9.64-21.62,11.65Z"/>
    </g>
  </g>
</svg>